<svg xmlns="http://www.w3.org/2000/svg" xmlns:xlink="http://www.w3.org/1999/xlink" viewBox="0 0 265.368 281.98">
  <defs>
    <style>
      .cls-1 {
        fill: none;
        stroke: #05f;
        stroke-miterlimit: 10;
        stroke-width: 1.5px;
      }

      .cls-2 {
        filter: url(#Path_90);
      }

      .cls-3 {
        filter: url(#Path_89);
      }
    </style>
    <filter id="Path_89" x="0" y="0" width="265.368" height="281.98" filterUnits="userSpaceOnUse">
      <feOffset input="SourceAlpha"/>
      <feGaussianBlur stdDeviation="5" result="blur"/>
      <feFlood flood-color="#05f"/>
      <feComposite operator="in" in2="blur"/>
      <feComposite in="SourceGraphic"/>
    </filter>
    <filter id="Path_90" x="121.079" y="54.269" width="73.249" height="73.249" filterUnits="userSpaceOnUse">
      <feOffset input="SourceAlpha"/>
      <feGaussianBlur stdDeviation="5" result="blur-2"/>
      <feFlood flood-color="#05f"/>
      <feComposite operator="in" in2="blur-2"/>
      <feComposite in="SourceGraphic"/>
    </filter>
  </defs>
  <g id="Group_145" data-name="Group 145" transform="translate(-399.184 -4770.25)">
    <g class="cls-3" transform="matrix(1, 0, 0, 1, 399.18, 4770.25)">
      <path id="Path_89-2" data-name="Path 89" class="cls-1" d="M-109.8,458.948a141.155,141.155,0,0,0-23.43-28.492l23.639-24.839-6.053-5.74-23.9,25.1a130.215,130.215,0,0,0-32.249-19.464l12.211-30.423-7.723-3.131-12.211,30.475a143.155,143.155,0,0,0-42.373-7.88V361h-8.349v33.45a136.6,136.6,0,0,0-43.417,7.306l-11.115-29.692-7.827,2.922,11.167,29.745a121.514,121.514,0,0,0-29.379,17.847l-25.935-23.013-5.531,6.262,25.152,22.282A153.134,153.134,0,0,0-342.274,458.9a4.24,4.24,0,0,0,0,4.436,133.528,133.528,0,0,0,99.514,63.559v17.794h-8.349a4.187,4.187,0,0,0-4.175,4.175h0v58.445a4.187,4.187,0,0,0,4.175,4.175h50.1a4.187,4.187,0,0,0,4.175-4.175h0V548.86a4.187,4.187,0,0,0-4.175-4.175h-8.349V527.256c41.9-3.966,75.4-25.361,99.566-63.82A4.333,4.333,0,0,0-109.8,458.948Zm-224.023,2.244c17.847-27.5,40.129-45.086,67.525-53.175a66.645,66.645,0,0,0-13.2,93.252,66.158,66.158,0,0,0,10.541,11.063A125.4,125.4,0,0,1-333.82,461.192Zm128.632,91.843v50.1h-41.747v-50.1Zm-29.223-8.349V527.621c1.879.1,3.757.157,5.636.209l11.063-.052v16.907Zm9.08-25.1c-1.1,0-2.192-.052-3.288-.1a58.459,58.459,0,0,1-55.836-60.846,58.421,58.421,0,0,1,57.663-55.888c1.1,0,2.192.052,3.288.1A58.459,58.459,0,0,1-167.668,463.7,58.421,58.421,0,0,1-225.331,519.585Zm39.5-5.218a66.645,66.645,0,0,0,13.2-93.252,66.158,66.158,0,0,0-10.541-11.063,125.4,125.4,0,0,1,64.864,51.14C-136.15,488.693-158.432,506.278-185.828,514.367Z" transform="translate(358.72 -345.25)"/>
    </g>
    <g class="cls-2" transform="matrix(1, 0, 0, 1, 399.18, 4770.25)">
      <path id="Path_90-2" data-name="Path 90" class="cls-1" d="M-111,465v8.349a33.428,33.428,0,0,1,33.4,33.4h8.349A41.8,41.8,0,0,0-111,465Z" transform="translate(247.83 -394.98)"/>
    </g>
  </g>
</svg>
