<?xml version="1.0" encoding="utf-8"?>
<!-- Generator: Adobe Illustrator 19.0.0, SVG Export Plug-In . SVG Version: 6.00 Build 0)  -->
<svg version="1.1" id="Layer_1" xmlns="http://www.w3.org/2000/svg" xmlns:xlink="http://www.w3.org/1999/xlink" x="0px" y="0px"
	 viewBox="0 0 217.2 169.3" style="enable-background:new 0 0 217.2 169.3;" xml:space="preserve">
<style type="text/css">
	.st0{fill:#404041;}
	.st1{fill:#6D6E70;}
	.st2{fill:#808184;}
	.st3{fill:#929497;}
	.st4{fill:#A6A8AB;}
	.st5{fill:none;}
</style>
<g>
	<path class="st0" d="M178.4,169.3L178.4,169.3L178.4,169.3L178.4,169.3z"/>
	<path class="st0" d="M178.4,169.3L178.4,169.3L178.4,169.3L178.4,169.3z"/>
	<path id="XMLID_30_" class="st1" d="M193.3,114.4l-14.9,54.9h0H10c-2,0-3.8-0.6-5.3-1.5L96,141.9h4.3l0.4-1.3v0l43.1-12.2
		l34.6,40.8l-12.7-47L193.3,114.4z"/>
	<path id="XMLID_29_" class="st2" d="M39.5,141.9h56.2l-91,25.9c-0.7-0.4-1.3-0.9-1.8-1.5L34.6,138C35.1,140.2,37,141.9,39.5,141.9z
		"/>
	<polygon id="XMLID_28_" class="st2" points="113.5,92.7 143.6,128.3 100.7,140.5 113.5,92.7 	"/>
	<polygon id="XMLID_27_" class="st2" points="157.7,92.7 199.1,92.7 193.4,114.1 165.6,122 	"/>
	<path id="XMLID_26_" class="st2" d="M204,74.7h-98.8L137,46.4h45.2C197.1,46.4,207.9,60.4,204,74.7z"/>
	<path id="XMLID_25_" class="st2" d="M217.2,22.5c0,1.9-0.2,3.9-0.8,5.9h-59.4L188.8,0h5.9C207.4,0,217.2,10.4,217.2,22.5z"/>
	<polygon id="XMLID_24_" class="st3" points="112.9,46.4 136.7,46.4 105.3,74.5 	"/>
	<path id="XMLID_23_" class="st3" d="M188.4,0l-31.7,28.4H63.4L34.6,135.6c-0.2,0.8-0.2,1.6-0.1,2.3L2.9,166.3
		c-0.5-0.5-1-1.1-1.4-1.7L68.6,0H188.4z"/>
	<path id="XMLID_22_" class="st4" d="M68.4,0L1.5,164.6c-1.4-2.2-1.9-5-1.2-7.9L42.6,0H68.4z"/>
	<path id="XMLID_21_" class="st5" d="M34.6,135.6c-0.2,0.8-0.2,1.6-0.1,2.3c0,0,0,0,0,0.1c0.5,2.2,2.4,4,4.9,4h60.8l0.4-1.3v0l0-0.1
		v0l12.8-47.8h0l30.1,35.6l0.1,0.1l34.6,40.8v0l0,0.1H10c-2,0-3.8-0.6-5.3-1.5h0c0,0,0,0,0,0c-0.7-0.4-1.3-0.9-1.8-1.5l0,0
		c-0.5-0.5-1-1.1-1.4-1.7c0,0,0,0,0,0c-1.4-2.2-1.9-5-1.2-7.9L42.6,0h152.1c12.8,0,22.6,10.4,22.6,22.5c0,1.9-0.2,3.9-0.8,5.9H63.4
		L34.6,135.6z"/>
	<path id="XMLID_20_" class="st1" d="M193.3,114.4l-14.9,54.9h0H10c-2,0-3.8-0.6-5.3-1.5L96,141.9h4.3l0.4-1.3v0l43.1-12.2
		l34.6,40.8l-12.7-47L193.3,114.4z"/>
	<path id="XMLID_19_" class="st2" d="M39.5,141.9h56.2l-91,25.9c-0.7-0.4-1.3-0.9-1.8-1.5L34.6,138C35.1,140.2,37,141.9,39.5,141.9z
		"/>
	<polygon id="XMLID_18_" class="st2" points="113.5,92.7 143.6,128.3 100.7,140.5 113.5,92.7 	"/>
	<polygon id="XMLID_17_" class="st2" points="157.7,92.7 199.1,92.7 193.4,114.1 165.6,122 	"/>
	<path id="XMLID_16_" class="st2" d="M204,74.7h-98.8L137,46.4h45.2C197.1,46.4,207.9,60.4,204,74.7z"/>
	<path id="XMLID_15_" class="st2" d="M217.2,22.5c0,1.9-0.2,3.9-0.8,5.9h-59.4L188.8,0h5.9C207.4,0,217.2,10.4,217.2,22.5z"/>
	<polygon id="XMLID_14_" class="st3" points="112.9,46.4 136.7,46.4 105.3,74.5 	"/>
	<path id="XMLID_13_" class="st3" d="M188.4,0l-31.7,28.4H63.4L34.6,135.6c-0.2,0.8-0.2,1.6-0.1,2.3L2.9,166.3
		c-0.5-0.5-1-1.1-1.4-1.7L68.6,0H188.4z"/>
	<path id="XMLID_12_" class="st4" d="M68.4,0L1.5,164.6c-1.4-2.2-1.9-5-1.2-7.9L42.6,0H68.4z"/>
	<path id="XMLID_11_" class="st5" d="M204,74.7h-98.8l0.1-0.3l7.5-28.1h69.4C197.1,46.4,207.9,60.4,204,74.7z"/>
	<path id="XMLID_10_" class="st1" d="M193.3,114.4l-14.9,54.9h0H10c-2,0-3.8-0.6-5.3-1.5L96,141.9h4.3l0.4-1.3v0l43.1-12.2
		l34.6,40.8l-12.7-47L193.3,114.4z"/>
	<path id="XMLID_9_" class="st2" d="M39.5,141.9h56.2l-91,25.9c-0.7-0.4-1.3-0.9-1.8-1.5L34.6,138C35.1,140.2,37,141.9,39.5,141.9z"
		/>
	<polygon id="XMLID_8_" class="st2" points="113.5,92.7 143.6,128.3 100.7,140.5 113.5,92.7 	"/>
	<polygon id="XMLID_7_" class="st2" points="157.7,92.7 199.1,92.7 193.4,114.1 165.6,122 	"/>
	<path id="XMLID_6_" class="st2" d="M204,74.7h-98.8L137,46.4h45.2C197.1,46.4,207.9,60.4,204,74.7z"/>
	<path id="XMLID_5_" class="st2" d="M217.2,22.5c0,1.9-0.2,3.9-0.8,5.9h-59.4L188.8,0h5.9C207.4,0,217.2,10.4,217.2,22.5z"/>
	<polygon id="XMLID_4_" class="st3" points="112.9,46.4 136.7,46.4 105.3,74.5 	"/>
	<path id="XMLID_3_" class="st3" d="M188.4,0l-31.7,28.4H63.4L34.6,135.6c-0.2,0.8-0.2,1.6-0.1,2.3L2.9,166.3
		c-0.5-0.5-1-1.1-1.4-1.7L68.6,0H188.4z"/>
	<path id="XMLID_2_" class="st4" d="M68.4,0L1.5,164.6c-1.4-2.2-1.9-5-1.2-7.9L42.6,0H68.4z"/>
	<polygon id="XMLID_1_" class="st5" points="199.1,92.7 193.4,114.1 193.3,114.4 178.4,169.3 178.4,169.3 178.4,169.3 178.4,169.3 
		178.4,169.3 165.7,122.2 165.6,122 157.7,92.7 	"/>
</g>
</svg>
